<svg width="936" height="936" viewBox="0 0 936 936" fill="none" xmlns="http://www.w3.org/2000/svg">
<g filter="url(#filter0_d_152_271)">
<rect x="20" y="20" width="836" height="836" rx="160" fill="white"/>
</g>
<path d="M713.228 528.978L666.247 453.761C666.247 453.761 666.072 453.446 665.967 453.306L662.262 447.397C655.27 436.172 643.177 429.458 629.963 429.424L554.282 429.178L549.004 437.641L458.572 582.408L453.574 590.417L491.466 650.982C498.457 662.242 510.552 668.956 523.869 668.956H629.928C643.002 668.956 655.376 662.067 662.297 651.017L666.038 645.037C666.038 645.037 666.178 644.862 666.213 644.792L713.263 569.471C720.989 557.162 720.989 541.251 713.263 528.978H713.228ZM698.896 560.485L651.846 635.806C651.635 636.155 651.391 636.434 651.181 636.715C649.538 638.568 647.406 638.814 646.462 638.814C645.379 638.814 642.721 638.498 641.009 635.771L593.957 560.448C593.433 559.61 592.979 558.736 592.559 557.792C592.14 556.883 591.825 555.974 591.546 555.028C590.497 551.253 590.497 547.196 591.546 543.419C592.07 541.566 592.874 539.713 593.923 538.035L640.904 462.783C640.904 462.783 640.975 462.678 641.009 462.608C642.127 460.929 643.526 460.16 644.748 459.916C645.238 459.775 645.657 459.741 646.007 459.67C646.182 459.67 646.357 459.67 646.531 459.67C647.615 459.67 650.307 460.02 651.985 462.747L698.967 537.964C703.265 544.818 703.265 553.631 698.967 560.485H698.896Z" fill="black"/>
<path d="M574.204 346.978C581.893 334.634 581.893 318.758 574.204 306.485L527.221 231.268L523.307 224.939C516.28 213.714 504.185 207 490.902 207H384.845C371.597 207 359.501 213.714 352.44 224.974L162.523 529.022C158.713 535.107 156.65 542.135 156.65 549.269C156.65 556.402 158.678 563.431 162.488 569.48L213.419 651.061C220.446 662.321 232.54 669 245.789 669H351.846C365.164 669 377.259 662.286 384.251 651.027L388.131 644.872C388.131 644.872 388.131 644.872 388.131 644.803L388.2 644.662L426.058 584.098L538.267 404.465L574.133 347.013L574.204 346.978ZM563.123 326.731C563.123 330.613 562.039 334.529 559.835 337.991L373.799 635.85C372.121 638.543 369.429 638.858 368.346 638.858C367.262 638.858 364.605 638.543 362.893 635.85L315.876 560.494C311.612 553.675 311.612 544.899 315.876 538.01L501.914 240.22C503.591 237.492 506.283 237.178 507.367 237.178C508.451 237.178 511.142 237.492 512.855 240.255L559.835 315.471C562.039 318.933 563.123 322.85 563.123 326.731Z" fill="black"/>
<defs>
<filter id="filter0_d_152_271" x="0" y="0" width="936" height="936" filterUnits="userSpaceOnUse" color-interpolation-filters="sRGB">
<feFlood flood-opacity="0" result="BackgroundImageFix"/>
<feColorMatrix in="SourceAlpha" type="matrix" values="0 0 0 0 0 0 0 0 0 0 0 0 0 0 0 0 0 0 127 0" result="hardAlpha"/>
<feOffset dx="30" dy="30"/>
<feGaussianBlur stdDeviation="25"/>
<feComposite in2="hardAlpha" operator="out"/>
<feColorMatrix type="matrix" values="0 0 0 0 0 0 0 0 0 0 0 0 0 0 0 0 0 0 0.1 0"/>
<feBlend mode="normal" in2="BackgroundImageFix" result="effect1_dropShadow_152_271"/>
<feBlend mode="normal" in="SourceGraphic" in2="effect1_dropShadow_152_271" result="shape"/>
</filter>
</defs>
</svg>
