<svg width="626" height="514" viewBox="0 0 626 514" fill="none" xmlns="http://www.w3.org/2000/svg">
<path d="M619.223 358.218L566.954 274.535C566.954 274.535 566.759 274.184 566.642 274.028L562.52 267.455C554.741 254.966 541.287 247.497 526.586 247.458L442.386 247.185L436.514 256.6L335.904 417.662L330.343 426.572L372.501 493.954C380.278 506.481 393.735 513.951 408.551 513.951H526.547C541.092 513.951 554.859 506.286 562.559 493.993L566.721 487.34C566.721 487.34 566.877 487.145 566.915 487.067L619.261 403.268C627.857 389.574 627.857 371.872 619.261 358.218H619.223ZM603.278 393.271L550.932 477.069C550.697 477.458 550.425 477.769 550.192 478.081C548.365 480.142 545.992 480.416 544.942 480.416C543.736 480.416 540.78 480.065 538.875 477.031L486.528 393.23C485.944 392.298 485.439 391.325 484.971 390.275C484.505 389.263 484.155 388.252 483.845 387.2C482.678 383 482.678 378.486 483.845 374.284C484.428 372.222 485.322 370.161 486.489 368.294L538.758 284.573C538.758 284.573 538.837 284.455 538.875 284.378C540.12 282.509 541.676 281.654 543.035 281.382C543.58 281.226 544.047 281.188 544.436 281.109C544.63 281.109 544.825 281.109 545.019 281.109C546.225 281.109 549.22 281.498 551.086 284.532L603.357 368.215C608.139 375.841 608.139 385.645 603.357 393.271H603.278Z" fill="white"/>
<path d="M464.551 155.733C473.106 142 473.106 124.337 464.551 110.682L412.28 26.9993L407.925 19.9577C400.108 7.46958 386.651 0 371.873 0H253.879C239.139 0 225.683 7.46958 217.827 19.9966L6.53365 358.267C2.29456 365.037 0 372.856 0 380.793C0 388.729 2.25567 396.549 6.49476 403.279L63.1586 494.042C70.9757 506.569 84.4318 514 99.1714 514H217.166C231.983 514 245.439 506.53 253.218 494.004L257.534 487.156C257.534 487.156 257.534 487.156 257.534 487.079L257.611 486.923L299.73 419.542L424.57 219.691L464.472 155.772L464.551 155.733ZM452.223 133.207C452.223 137.526 451.017 141.883 448.565 145.734L241.589 477.119C239.723 480.115 236.728 480.465 235.523 480.465C234.317 480.465 231.361 480.115 229.456 477.119L177.147 393.282C172.403 385.695 172.403 375.93 177.147 368.266L384.124 36.9588C385.991 33.9244 388.985 33.5741 390.191 33.5741C391.397 33.5741 394.392 33.9244 396.296 36.9977L448.565 120.68C451.017 124.532 452.223 128.889 452.223 133.207Z" fill="white"/>
</svg>
